<svg xmlns="http://www.w3.org/2000/svg" viewBox="0 0 64 64" width="64" height="64">
  <!-- Cloud shape -->
  <path d="M50 24c-1.1 0-2.2 0.2-3.2 0.5 -0.5-5.7-5.2-10.2-11-10.2 -5.9 0-10.8 4.7-11 10.5 -0.6-0.1-1.2-0.2-1.8-0.2 -4.4 0-8 3.6-8 8s3.6 8 8 8h27c5 0 9-4 9-9s-4-9-9-9z" fill="#3B82F6" />

  <!-- Code brackets -->
  <path d="M28 32l-8 6 8 6" stroke="#FFFFFF" stroke-width="3" fill="none" stroke-linecap="round" stroke-linejoin="round" />
  <path d="M36 32l8 6 -8 6" stroke="#FFFFFF" stroke-width="3" fill="none" stroke-linecap="round" stroke-linejoin="round" />

  <!-- Slash for code -->
  <path d="M34 30l-4 16" stroke="#FFFFFF" stroke-width="3" fill="none" stroke-linecap="round" stroke-linejoin="round" />
</svg>